<svg width="1274" height="205" viewBox="0 0 1274 205" fill="none" xmlns="http://www.w3.org/2000/svg">
<path d="M53 132.844C84 123.344 149.6 101.544 164 90.3439C177.5 89.0105 210.9 78.8439 236.5 48.8439C253 39.8439 257.5 51.8439 275.5 29.3439C289.5 22.8439 318 8.84387 388.5 13.8439C402 -5.15617 409 -7.65636 466 38.3439C476.667 38.8438 501.9 43.7436 517.5 59.3436C524.667 55.8436 542.6 50.9436 557 59.3436C575.5 46.5103 617.8 24.0436 639 36.8436C646.667 32.8436 663.6 24.9436 670 25.3436C688 3.34363 693.5 -2.15637 772.5 39.8436C778.167 36.177 795.6 29.1436 832 28.3436C859 13.8436 889 2.84363 968.5 45.8436C983 48.677 1013.2 56.5436 1018 65.3436C1026.83 66.5103 1047 70.7436 1057 78.3436C1077.17 75.8436 1122.4 77.2436 1142 102.844C1151.67 105.51 1172.8 113.944 1180 126.344C1196 126.344 1212 140.844 1230.5 146.844C1245.3 151.644 1265.67 187.177 1274 204.344H70.5H1C9 202.844 19.5 156.844 20.5 157.344C21.3 157.744 42.5 141.177 53 132.844Z" fill="#264318" stroke="#264318"/>
</svg>
